/* XPM */
static char *_c98c2871d4a497eda7eb1bbb2700c60lLv7mKDqn0WUMS1X[] = {
/* columns rows colors chars-per-pixel */
"32 32 28 1 ",
"  c #A8B860",
". c #ABBB63",
"X c #ACBC64",
"o c #ADBD65",
"O c #B0C068",
"+ c #B1C169",
"@ c #B2C26A",
"# c #B3C36B",
"$ c #B4C46C",
"% c #B5C56D",
"& c #BACA72",
"* c #BBCB73",
"= c #BCCC74",
"- c #BDCD75",
"; c #BECE76",
": c #BFCF77",
"> c #C0D078",
", c #C1D179",
"< c #C2D27A",
"1 c #C3D37B",
"2 c #C4D47C",
"3 c #C5D57D",
"4 c #C6D67E",
"5 c #C7D77F",
"6 c #C8D880",
"7 c #C9D981",
"8 c #CADA82",
"9 c #CBDB83",
/* pixels */
"-5<6<<<5<5<<<<<<<$<6<<55<55<<<5<",
"55-5555-55<5<<<<6-56<<<<55-55<5<",
"55555<55555555<56<55<555<<$-5<65",
"5<<<6-5555555555<<<<<555<6<56<-@",
"<565<$<555555555<55<<<<<55<<<555",
"65<<5<<<555555<555555<<<5<5555<5",
"<5<55<5555<5<<<<<5<55<555<55<<-5",
"<5-5<55<55<<<<<<55<5<<5<<655555<",
"-655<6<55<55555555<<<<55-6<6<<55",
"5-<55<55<<5<555555<<<<5565<55<5-",
"<655<5<5<<<<<<555555<<55-565<@<5",
"65-X556<<<<<<<<55555<<5555<<6<5<",
"5<56<<<<<<<<<<<<<<<555<5<556<555",
"5<6<6<55<<<5<<5<<<<555<<<5<5-5<-",
"X5<<<6<5<<555555<<<<55555555555<",
"55<5<55<<<555555<5<555<<5<5<5-56",
"<6<<5<<5<<<<55<<<<555555<6<<<5<@",
"6556<<6<<<<<5555<<5555555<56<<55",
"5<<5<<<5<<555555<<<5<<<<<<5<56<5",
"6<5555-5<<555555<<<5<<<<5<5<$-5<",
"<@-5-5655555<555<<<<<<5556<<5<56",
"6<5555555555<555<<<<<<555<<6<<<X",
"<6<<5<<555<<<<55<<<<5555-65<<565",
"55<5<<65<<<<<<55555555556-<5<<<5",
"<<55<6<5<5555<55<6<6<6<5<5<5<6<<",
"55<65-<<6<6<<6<<555<5<555-5<55<5",
"<555-555<5<55<55<5<5<5<<<6<55X5<",
"<< 55<5<<5-55<6<<6<5-5<5555<6<<5",
"565<<55<55655<<5<565555<<<<5565<",
"<<5<6 55<<<55-55<555<5<<<<56&5<<",
"5<6&555<5<@<6<6-55-<@5<556&56<6<",
"<5<6<5<5<5<55-56<555<55<5-5@<< 5"
};
