/* XPM */
static char *_c140454b0334375b2cf106ef599b229gnyS6hpeLkLWtvWn[] = {
/* columns rows colors chars-per-pixel */
"32 32 43 1 ",
"  c #550336",
". c #6D1E3B",
"X c #840000",
"o c #BE3835",
"O c #CD1910",
"+ c #F1342B",
"@ c #A33C61",
"# c #D75553",
"$ c #F54942",
"% c #D36867",
"& c #F16962",
"* c #F96C66",
"= c #E87371",
"- c #F57E7B",
"; c #A4B951",
": c #A7BC55",
"> c #A8BD56",
", c #FFA076",
"< c #ADC25B",
"1 c #AEC35C",
"2 c #AFC45D",
"3 c #B0C55E",
"4 c #B6CB64",
"5 c #B7CC66",
"6 c #B8CD67",
"7 c #B9CE68",
"8 c #BBD06A",
"9 c #BCD16B",
"0 c #BED36D",
"q c #BFD46E",
"w c #C0D56F",
"e c #C2D771",
"r c #C3D872",
"t c #C4D973",
"y c #C6DB75",
"u c #C7DC76",
"i c #EC839F",
"p c #F99BB4",
"a c #FFACC3",
"s c #FDCDDE",
"d c #FDD9E5",
"f c #FDF0F4",
"g c white",
/* pixels */
"7e0t90qewwwwwwww939tqqww9eewqwe0",
"re8eere9wwwwwwwwt7etqq0qrr7ee9rq",
"wwwer9eewwwwwwwwtqeeqwwe0q39e9ue",
"e000t8ewwwwwwwwwqqq0qeee0tqrt08<",
"0eye039rwwwwwwwwqewqwwqqeeq90rre",
"te0qr0q9wwwwww    eeeww0e9reee9e",
"0e0rwqeeww... O$$O ...rwrqwwq09e",
"qe9r0ew0..sf O$*$$O gs.qqtwweetq",
"8uwe0y9.sggg +$$,$$Xggs.7y0y0qrw",
"r70ww0.gggddX+++$$+Xggg.tr9wr0e8",
"9yeeqe.fgdggfXO+++&Xgds@7wyw9<0r",
"ye8>re.sfgfddfsXXXXddgg@rw00t0r0",
"w0ey000.ffdggggggddgggg@9ret0eer",
"eqt9y0r.sdfffggfdgggggf@9e9e8t08",
">wqq0t9@sssfffdgggggdfg@eeeewewq",
"rw0rqrw@sso%sdfffggdggg@e0r0e8wt",
"9t99e0qw@fpa-%sfffdgggf@9tq0qeq<",
"yweyqqy0@fpaia=%sdfffff.r0ry00ee",
"w9qeqqqw@so=paip=%sfffs.q0e0ey9e",
"yqrrew8e.spa#=aapa==##=.e9r937e0",
"918e8wtew.s#pa#=pappapi.wy0qrqey",
"y0etwwewww..#=ia#=aiap#.eq0tq00>",
"0t00eq0ewwww..#=aa#==#p.8tr0qete",
"we0eq0ywwwwwww..#=apai#.y70wqq9w",
"0qwe0yqw0eweeqee..##=#.eqr9wqy00",
"ee0te8qqy0tqwy9qee....err8eqweqe",
"0eee9rer0wqww0ww0e0e0e0q0yqre>eq",
"w0;re0w0qe6wr0y0qt9r7r0eeww0y00e",
"rteqqeeqewtewq0rqwtereeqqq9ewyw0",
"qqrqy:wwqq0ew8we0wwe0ew0qqru5e00",
"e9t4rwe9eq<9yqy6er792wwrey5etquq",
"0e0t9e0rqewrw8wt0wreqer0e7e<q0:e"
};
