/* XPM */
static char *e9cc3407089a4dfa8f3cddd564713b9dCflyUuLvACg23omP[] = {
/* columns rows colors chars-per-pixel */
"32 32 9 1 ",
"  c None",
". c #3A0F1C",
"X c #491D21",
"o c #523825",
"O c #4B4123",
"+ c #5D542C",
"@ c #714E54",
"# c #936E72",
"$ c #B48F94",
/* pixels */
"                                ",
"                                ",
"                                ",
"                                ",
"                                ",
"                                ",
"                                ",
"                                ",
"                                ",
"                                ",
"       ...................      ",
"     ..$$$$$$$$$$$$$$$$$$$..    ",
"    .$$###################$$.   ",
"   .$X##@ooooooooooooooo@##X$.  ",
"   .$X@oo+++++++++++++++oo@X$.  ",
"   .$Xo+++++++++++++++++++oX$.  ",
"   .$X+++++++++++++++++++++X$.  ",
"   .$X+++++++++++++++++++++X$.  ",
"   .#$XXXXX++++++++++XXXXXX$#.  ",
"   .##$$$$$XOOOOOOOOX$$$$$$##.  ",
"    .######$XXXXXXXX$#######.   ",
"     ..#######$$$$$#######..    ",
"       ...................      ",
"                                ",
"                                ",
"                                ",
"                                ",
"                                ",
"                                ",
"                                ",
"                                ",
"                                "
};
