/* XPM */
static char *_d78486466e249b3837f811c3ffe07d8RQwCT7SZEy8M2Uvf[] = {
/* columns rows colors chars-per-pixel */
"32 32 32 1 ",
"  c #3A0F1C",
". c #491D21",
"X c #523825",
"o c #4B4123",
"O c #5D542C",
"+ c #714E54",
"@ c #936E72",
"# c #8E8C51",
"$ c #908E53",
"% c #919054",
"& c #A4B951",
"* c #A7BC55",
"= c #A8BD56",
"- c #ADC25B",
"; c #AEC35C",
": c #AFC45D",
"> c #B0C55E",
", c #B6CB64",
"< c #B7CC66",
"1 c #B8CD67",
"2 c #B9CE68",
"3 c #BBD06A",
"4 c #BCD16B",
"5 c #BED36D",
"6 c #BFD46E",
"7 c #C0D56F",
"8 c #C2D771",
"9 c #C3D872",
"0 c #C4D973",
"q c #C6DB75",
"w c #C7DC76",
"e c #B48F94",
/* pixels */
"28504567777777774>40667737876785",
"98388984777777770280665699288496",
"77789488777777770688677856>484w8",
"8555038777777777666568885069053-",
"58q85>49777777776876776688645998",
"08569564777777777988877584988848",
"58597688777777776868869796776548",
"68495875777777778758648660778806",
"3w785q4777777777777777772q5q5697",
"92577598777777777777777709479583",
"4q88685                   q74-59",
"q83=9  eeeeeeeeeeeeeeeeeee  0595",
"758q ee@@@@@@@@@@@@@@@@@@@ee 889",
"860 e.@@+XXXXXXXXXXXXXXX+@@.e 53",
"=76 e.+XXOOOOOOOOOOOOOOOXX+.e 76",
"975 e.XOOOOOOOOOOOOOOOOOOOX.e 70",
"404 e.OOOOOOOOOOOOOOOOOOOOO.e 6-",
"q78 e.OOOOOOOOOOOOOOOOOOOOO.e 88",
"746 @e.....OOOOOOOOOO......e@ 48",
"q69 @@eeeee.oooooooo.eeeeee@@ 85",
"4;3% @@@@@@e........e@@@@@@@ #8q",
"q580$  @@@@@@@eeeee@@@@@@@  #55=",
"50558##                   %#6808",
"785865q77777777777777777q2576647",
"56785q67587886885050604869476q55",
"88508366q5067q468885858993867868",
"5888498957677577585858565q698=86",
"75&98575681795q5604929588775q558",
"90866886870876596708988666487q75",
"6696q*776658737857785875669w<855",
"840,978486-4q6q18924:7798q<806w6",
"585048596879737057986895828-65*8"
};
