/* XPM */
static char *e012bfb965c54232f2538a93a7d5cce8vLamNaPEYxvwfT0U[] = {
/* columns rows colors chars-per-pixel */
"32 32 9 1 ",
"  c None",
". c #454412",
"X c #477238",
"o c #676A35",
"O c #7E7B4A",
"+ c #60B045",
"@ c #F8C53A",
"# c #FBD66A",
"$ c #FBE86A",
/* pixels */
"                                ",
"                                ",
"                                ",
"                                ",
"                                ",
"                         o      ",
"                        o#o     ",
"                        o#o     ",
"                        o$o     ",
"          oo            o$o     ",
"     Oo  o$$o           o$o     ",
"    o@Ooo#@#$o          o$o     ",
"    o@OOO@@@$o          o$o     ",
"    oO@$$$$@#$         o@#o     ",
"    o@$$$$$$$#oooooooooo@@o     ",
"    O$$$$$$$$$@#$$$$$##@@o      ",
"   O#$$$XX$$$@$$$$$$$$$#@o      ",
"   O#$$$X+$$$@$$$$$$$$$$@o      ",
"   o#o#$$$$$$@$$$$$$$$$$o       ",
"    o#$$$$$$#@$$$$$$$$$$.       ",
"     oO#$$#OO@#$$$#$$$$#.       ",
"       ..oOO@#####@#$$#o.       ",
"          .@@@##@..###$o        ",
"          .@o@#@. .O@@$o        ",
"          .@o@#.   .@@@.        ",
"          O@o@.    .$@@.        ",
"          ..$$.    .$$$.        ",
"            ..      ...         ",
"                                ",
"                                ",
"                                ",
"                                "
};
