/* XPM */
static char *b335886e5b194bfb9361bdf0833b6ec8iMP06SsOUmYwoPUl[] = {
/* columns rows colors chars-per-pixel */
"32 32 34 1 ",
"  c #43420A",
". c #676A32",
"X c #7F7C49",
"o c #7D8B46",
"O c #7E8C47",
"+ c #7F8D48",
"@ c #F8C637",
"# c #818F4A",
"$ c #82904B",
"% c #83914C",
"& c #84924D",
"* c #A4B951",
"= c #A7BC55",
"- c #A8BD56",
"; c #ADC25B",
": c #AEC35C",
"> c #AFC45D",
", c #B0C55E",
"< c #B6CB64",
"1 c #B7CC66",
"2 c #B8CD67",
"3 c #B9CE68",
"4 c #BBD06A",
"5 c #BCD16B",
"6 c #BED36D",
"7 c #BFD46E",
"8 c #C0D56F",
"9 c #C2D771",
"0 c #C3D872",
"q c #C4D973",
"w c #C6DB75",
"e c #C7DC76",
"r c #FBD76A",
"t c #FBE96A",
/* pixels */
"396q5679888888885,5q778859987896",
"0949909588888888q39q776700399507",
"8889059988888888q799788967,595e9",
"9666q49888888888777679996q70q64;",
"69w96,50888888887987887799756009",
"q96706758888.8888099.88695099959",
"69608799888.t.88797.t.0807887659",
"79506986888.rr.....rr.977q8899q7",
"4e896w58888.X@rrrrr@X.883w6w6708",
"03688609888.@rtttttr@.88q0580694",
"5w99796988..@rrt@ttr@..838w85;60",
"w94-09w6888 .rrt@rr@. 880866q606",
"869w666788..rrrt@tr@@..8509q6990",
"97q5w608888 rtrt@tttr 8859594q64",
"-8776q5088.rtt@t@ttttr.899998987",
"0860708888.rtt@trrtttr.89606948q",
"5q55967888.rrt@trrttr@.85q76797;",
"w89w77w688.@rt@rt@ttr@.8060w6699",
"8579777888 @rtrrt@ttr@ 876969w59",
"w700984988 @rrr@r@trr@ 89505,396",
"5:4948q988 Xrrr@r@rrrX 88w67079w",
"w69q8898888.@r@@@@rr@.88976q766-",
"6q669769888 @r@XX@rr@ 884q0679q9",
"896976w8888 X@X  X@@X 88w3687758",
"67896w78698% @ $# @@ &5970587w66",
"996q9477w6q# t #$ tt #9004978979",
"69995090687# r #+ rr %676w709-97",
"86*09686792#% .##.  o%699886w669",
"0q97799798q9###%##&$%99777598w86",
"7707w=8877698O#$+##$6986770e1966",
"95q<089597;5w7w29035>8809w19q7e7",
"696q59607980848q68097906939;76=9"
};
