/* XPM */
static char *_83a80bb80ee4b0db705e0c3740b59d1gGXmUaIwbM9tlPeO[] = {
/* columns rows colors chars-per-pixel */
"32 32 9 1 ",
"  c None",
". c #454412",
"X c #477238",
"o c #676A35",
"O c #7E7B4A",
"+ c #60B045",
"@ c #F8C53A",
"# c #FBD66A",
"$ c #FBE86A",
/* pixels */
"                                ",
"                                ",
"                                ",
"                                ",
"                                ",
"     o                          ",
"    o#o                         ",
"    o#o                         ",
"    o$o                         ",
"    o$o            oo           ",
"    o$o           o$$o  oO      ",
"    o$o          o$#@#ooO@o     ",
"    o$o          o$@@@OOO@o     ",
"    o#@o         $#@$$$$@Oo     ",
"    o@@oooooooooo#$$$$$$$@o     ",
"     o@@##$$$$$#@$$$$$$$$$O     ",
"     o@#$$$$$$$$$@$$$XX$$$#O    ",
"     o@$$$$$$$$$$@$$$+X$$$#O    ",
"      o$$$$$$$$$$@$$$$$$#o#o    ",
"      .$$$$$$$$$$@#$$$$$$#o     ",
"      .#$$$$#$$$#@OO#$$#Oo      ",
"      .o#$$#@#####@OOo..        ",
"       o$###..@##@@@.           ",
"       o$@@O. .@#@o@.           ",
"       .@@@.   .#@o@.           ",
"       .@@$.    .@o@O           ",
"       .$$$.    .$$..           ",
"        ...      ..             ",
"                                ",
"                                ",
"                                ",
"                                "
};
