/* XPM */
static char *_1504c1d17a54dc1dd9937c23352083diMvuqUFwxO8KvdF5[] = {
/* columns rows colors chars-per-pixel */
"32 32 37 1 ",
"  c #43420A",
". c #457335",
"X c #676A32",
"o c #7F7C49",
"O c #7D8B46",
"+ c #7E8C47",
"@ c #7F8D48",
"# c #60B243",
"$ c #D8A714",
"% c #F8C637",
"& c #818F4A",
"* c #82904B",
"= c #83914C",
"- c #84924D",
"; c #A4B951",
": c #A7BC55",
"> c #A8BD56",
", c #ADC25B",
"< c #AEC35C",
"1 c #AFC45D",
"2 c #B0C55E",
"3 c #B6CB64",
"4 c #B7CC66",
"5 c #B8CD67",
"6 c #B9CE68",
"7 c #BBD06A",
"8 c #BCD16B",
"9 c #BED36D",
"0 c #BFD46E",
"q c #C0D56F",
"w c #C2D771",
"e c #C3D872",
"r c #C4D973",
"t c #C6DB75",
"y c #C7DC76",
"u c #FBD76A",
"i c #FBE96A",
/* pixels */
"6w9r890wqqqqqqqXX28r00qq8wwq0qw9",
"ew7wwew8qqqqqqX$$Xwr0090ee6ww8e0",
"qqqwe8wwqqqqqqXu$Xww0qqw9028w8yw",
"w999r7wqqqqqqqXu$X090www9r0er97,",
"9wtw928eqqqqqqXu$Xq0qq00ww089eew",
"rw90e908qqqqqqXu$Xwwwqq9w8ewww8w",
"9w9eq0wwqqqqqqX$$X0ww0eqe0qq098w",
"0w8e9wq9qqqqqqX$$X9w08w00rqqwwr0",
"7yqw9t8qqqqqqqX%%XXqqqqq6t9t90eq",
"e69qq9ewqqqqqX$$$$%Xqqqqre8qe9w7",
"8tww0w9wqqqqX%iiiii%Xqqq6qtq8,9e",
"tw7>ewt9qqqX%iiiii%u%Xqqeq99r9e9",
"q9wt9990qqqXu$$$$$$$%Xqq8ewr9wwe",
"w0r8t9eqqqqX$%%%%%%%$Xqq8w8w7r97",
">q009r8eqqqX%%iiii%%%Xqqwwwwqwq0",
"eq9e0eqqqqqX%iiiiiii%Xqqw9e9w7qr",
"8r88w90qqqqXiiiiiiiiiXqq8r090w0,",
"tqwt00t9qqqXi..iii..iXqqe9et99ww",
"q80w000qqqXXi#.iii.#iXXq09w9wt8w",
"t0eewq7wqqqo%u%XX%ii%oqqw8e826w9",
"8<7w7qrwqqXXo%iiiii%oXXqqt90e0wt",
"t9wrqqwqqqqX%%oooo%%%Xqqw09r099>",
"9r99w09wqqq $%iiiii%$ qq7re90wrw",
"qw9w09tqqqq& $XXXX$$ &qqt69q008q",
"90qw9t0q9wq=*X$XX$$X&-8w0e8q0t99",
"ww9rw700t9r&& u  uu =&wee7w0qw0w",
"9www8ewe9q0&& u  uu &=909t0ew>w0",
"q9;ew9q90w5&=& &&  =O=9wwqq9t99w",
"erw00ww0wqrw&&&=&&-*=ww0008wqtq9",
"00e0t:qq009wq+&*@&&*9wq900ey4w99",
"w8r3eqw8w0,8t0t5we681qqewt4wr0y0",
"9w9r8w9e0wqeq7qr9qew0we9w6w,09:w"
};
