/* XPM */
static char *a3d57c21f1324bad9ae35e7f21276441Vi9XTb0SbQXvi44J[] = {
/* columns rows colors chars-per-pixel */
"32 32 7 1 ",
"  c None",
". c #454412",
"X c #676A35",
"o c #7E7B4A",
"O c #F8C53A",
"+ c #FBD66A",
"@ c #FBE86A",
/* pixels */
"                                ",
"                                ",
"                                ",
"                                ",
"                                ",
"            X       X           ",
"           X@X     X@X          ",
"           X++XXXXX++X          ",
"           XoO+++++OoX          ",
"           XO+@@@@@+OX          ",
"          XXO++@O@@+OXX         ",
"           .X++@O++OX.          ",
"          XX+++@O@+OOXX         ",
"           .+@+@O@@@+.          ",
"          X+@@O@O@@@@+X         ",
"          X+@@O@++@@@+X         ",
"          X++@O@++@@+OX         ",
"          XO+@O+@O@@+OX         ",
"          .O+@++@O@@+O.         ",
"          .O+++O+O@++O.         ",
"          .o+++O+O+++o.         ",
"           XO+OOOO++OX          ",
"           .O+OooO++O.          ",
"           .oOo..oOOo.          ",
"            .O.  .OO.           ",
"            .@.  .@@.           ",
"            .+.  .++.           ",
"             .X  X..            ",
"                                ",
"                                ",
"                                ",
"                                "
};
