/* XPM */
static char *_aecbf95d24c433ac6333f4de2e9addbCZt6E508z7DmWHby[] = {
/* columns rows colors chars-per-pixel */
"32 32 3 1 ",
"  c #E3B160",
". c #F9E268",
"X c #FFEE92",
/* pixels */
"..........  ..........  ........",
"..........  ..........  ........",
"                                ",
"                                ",
"XXXXXX  ..................  ....",
"XXXXXX  ..................  ....",
"XXXXXX  ..................  ....",
"XXXXXX  ..................  ....",
"                                ",
"                                ",
"........  ..............  XXXXXX",
"........  ..............  XXXXXX",
"........  ..............  XXXXXX",
"........  ..............  XXXXXX",
"                                ",
"                                ",
"......  XXXXXXXXXXXXXXXXXX  ....",
"......  XXXXXXXXXXXXXXXXXX  ....",
"......  XXXXXXXXXXXXXXXXXX  ....",
"......  XXXXXXXXXXXXXXXXXX  ....",
"                                ",
"                                ",
"............  ......  ..........",
"............  ......  ..........",
"............  ......  ..........",
"............  ......  ..........",
"                                ",
"                                ",
"......  ..................  ....",
"......  ..................  ....",
"......  ..................  ....",
"......  ..................  ...."
};
