/* XPM */
static char *a1300c41883d4d07f4a319aa6cc1201biTu6QNXpsBDMRkgp[] = {
/* columns rows colors chars-per-pixel */
"64 64 6 1 ",
"  c #9E6100",
". c #CEA138",
"X c #E3B160",
"o c #E5CE58",
"O c #F9E268",
"+ c #FFEE92",
/* pixels */
"XXXXXXXXXXXXXXXXXXXXXXXXXXXXXXXXXXXXXXXXXXXXXXXXXXXXXXXXXXXXXXXX",
"XXXXXXXXXXXXXXXXXXXXXXXXXXXXXXXXXXXXXXXXXXXXXXXXXXXXXXXXXXXXXXXX",
"OOOOOOOOOOXX++++++++++++++++XXOOOOOOXXOOOOOOOOOOOOOOOOXXOOOOOOOO",
"OOOOOOOOOOXX++++++++++++++++XXOOOOOOXXOOOOOOOOOOOOOOOOXXOOOOOOOO",
"OOOOOOOOOOXX++++++++++++++++XXOOOOOOXXOOOOOOOOOOOOOOOOXXOOOOOOOO",
"OOOOOOOOOOXX++++++++++++++++XXOOOOOOXXOOOOOOOOOOOOOOOOXXOOOOOOOO",
"XXXXXXXXXXXXXXXXXXXXXXXXXXXXXXXXXXXXXXXXXXXXXXXXXXXXXXXXXXXXXXXX",
"XXXXXXXXXXXXXXXXXXXXXXXXXXXXXXXXXXXXXXXXXXXXXXXXXXXXXXXXXXXXXXXX",
"XX++++++XXOOOOXXOOOOOOXXOOOOOOOOOOOOOOOOOOXX++++++XXOOOOXXOOOOOO",
"XX++++++XXOOOOXXOOOOOOXXOOOOOOOOOOOOOOOOOOXX++++++XXOOOOXXOOOOOO",
"XX++++++XXOOOOXXOOOOOOXXOOOOOOOOOOOOOOOOOOXX++++++XXOOOOXXOOOOOO",
"XX++++++XXOOOOXXOOOOOOXXOOOOOOOOOOOOOOOOOOXX++++++XXOOOOXXOOOOOO",
"XXXXXXXXXXXXXXXXXXXXXXXXXXXXXXXXXXXXXXXXXXXXXXXXXXXXXXXXXXXXXXXX",
"XXXXXXXXXXXXXXXXXXXXXXXXXXXXXXXXXXXXXXXXXXXXXXXXXXXXXXXXXXXXXXXX",
"OOOOOOOOOOXXOOOOOOOOOOOOOOXXOOOOOOOOOOXXOOOOOOOOOOOOOOXXOOOOOOOO",
"OOOOOOOOOOXXOOOOOOOOOOOOOOXXOOOOOOOOOOXXOOOOOOOOOOOOOOXXOOOOOOOO",
"OOOOOOOOOOXXOOOOOOOOOOOOOOXXOOOOOOOOOOXXOOOOOOOOOOOOOOXXOOOOOOOO",
"OOOOOOOOOOXXOOOOOOOOOOOOOOXXOOOOOOOOOOXXOOOOOOOOOOOOOOXXOOOOOOOO",
"XXXXXXXXXXXXXXXXXXXXXXXXXXXXXXXXXXXXXXXXXXXXXXXXXXXXXXXXXXXXXXXX",
"XXXXXXXXXXXXXXXXXXXXXXXXXXXXXXXXXXXXXXXXXXXXXXXXXXXXXXXXXXXXXXXX",
"XXOOOOOOXXOOOOXX++++++XXOOOOOOOOOOOOOOOOOOXXOOOOOOXXOOOOXXOOOOOO",
"XXOOOOOOXXOOOOXX++++++XXOOOOOOOOOOOOOOOOOOXXOOOOOOXXOOOOXXOOOOOO",
"XXOOOOOOXXOOOOXX++++++XXOOOOOOOOOOOOOOOOOOXXOOOOOOXXOOOOXXOOOOOO",
"XXOOOOOOXXOOOOXX++++++XXOOOOOOOOOOOOOOOOOOXXOOOOOOXXOOOOXXOOOOOO",
"XXXXXXXXXXXXXXXXXXXXXXXXXXXXXXXXXXXXXXXXXXXXXXXXXXXXXXXXXXXXXXXX",
"XXXXXXXXXXXXXXXXXXXXXXXXXXXXXXXXXXXXXXXXXXXXXXXXXXXXXXXXXXXXXXXX",
"OOOOOOOOOOXXOOOOOOOOOOOOXXOOOOOOOOOOOOOOXX++++++++++++XXOOOOOOOO",
"OOOOOOOOOOXXOOOOOOOOOOOOXXOOOOOOOOOOOOOOXX++++++++++++XXOOOOOOOO",
"OOOOOOOOOOXXOOOOOOOOOOOOXXOOOOOOOOOOOOOOXX++++++++++++XXOOOOOOOO",
"OOOOOOOOOOXXOOOOOOOOOOOOXXOOOOOOOOOOOOOOXX++++++++++++XXOOOOOOOO",
"XXXXXXXXXXXXXXXXXXXXXXXXXXXXXXXXXXXXXXXXXXXXXXXXXXXXXXXXXXXXXXXX",
"XXXXXXXXXXXXXXXXXXXXXXXXXXXXXXXXXXXXXXXXXXXXXXXXXXXXXXXXXXXXXXXX",
"XX++++++XXOOOOXXOOOOOOXX++++++++++++++++++XXOOOOOOXXOOOOXXOOOOOO",
"XX++++++XXOOOOXXOOOOOOXX++++++++++++++++++XXOOOOOOXXOOOOXXOOOOOO",
"XX++++++XXOOOOXXOOOOOOXX++++++++++++++++++XXOOOOOOXXOOOOXXOOOOOO",
"XX++++++XXOOOOXXOOOOOOXX++++++++++++++++++XXOOOOOOXXOOOOXXOOOOOO",
"XXXXXXXXXXXXXXXXXXXXXXXXXXXXXXXXXXXXXXXXXXXXXXXXXXXXXXXXXXXXXXXX",
"XXXXXXXXXXXXXXXXXXXXXXXXXXXXXXXXXXXXXXXXXXXXXXXXXXXXXXXXXXXXXXXX",
"OOOOOOOOOOXXOOOOOOOOOOOOOOOOXXOOOOOOXXOOOOOOOOOOOOOOOOXX++++++++",
"OOOOOOOOOOXXOOOOOOOOOOOOOOOOXXOOOOOOXXOOOOOOOOOOOOOOOOXX++++++++",
"OOOOOOOOOOXXOOOOOOOOOOOOOOOOXXOOOOOOXXOOOOOOOOOOOOOOOOXX++++++++",
"OOOOOOOOOOXXOOOOOOOOOOOOOOOOXXOOOOOOXXOOOOOOOOOOOOOOOOXX++++++++",
"XXXXXXXXXXXXXXXXXXXXXXXXXXXXXXXXXXXXXXXXXXXXXXXXXXXXXXXXXXXXXXXX",
"XXXXXXXXXXXXXXXXXXXXXXXXXXXXXXXXXXXXXXXXXXXXXXXXXXXXXXXXXXXXXXXX",
"XXOOOOOOXXOOOOXXOOOOOOXXOOOOOOOOOOOOOOOOOOXXOOOOOOXXOOOOXXOOOOOO",
"XXOOOOOOXXOOOOXXOOOOOOXXOOOOOOOOOOOOOOOOOOXXOOOOOOXXOOOOXXOOOOOO",
"XXOOOOOOXXOOOOXXOOOOOOXXOOOOOOOOOOOOOOOOOOXXOOOOOOXXOOOOXXOOOOOO",
"XXOOOOOOXXOOOOXXOOOOOOXXOOOOOOOOOOOOOOOOOOXXOOOOOOXXOOOOXXOOOOOO",
"XXXXXXXXXXXXXXXXXXXXXXXXXXXXXXXXXXXXXXXXXXXXXXXXXXXXXXXXXXXXXXXX",
"XXXXXXXXXXXXXXXXXXXXXXXXXXXXXXXXXXXXXXXXXXXXXXXXXXXXXXXXXXXXXXXX",
"OOOOOOOOOOXX++++++++++++XXOOOOOOOOOOOOOOXXOOOOOOOOOOOOXXOOOOOOOO",
"OOOOOOOOOOXX++++++++++++XXOOOOOOOOOOOOOOXXOOOOOOOOOOOOXXOOOOOOOO",
"OOOOOOOOOOXX++++++++++++XXOOOOOOOOOOOOOOXXOOOOOOOOOOOOXXOOOOOOOO",
"OOOOOOOOOOXX++++++++++++XXOOOOOOOOOOOOOOXXOOOOOOOOOOOOXXOOOOOOOO",
"XXXXXXXXXXXXXXXXXXXXXXXXXXXXXXXXXXXXXXXXXXXXXXXXXXXXXXXXXXXXXXXX",
"XXXXXXXXXXXXXXXXXXXXXXXXXXXXXXXXXXXXXXXXXXXXXXXXXXXXXXXXXXXXXXXX",
"XXOOOOOOOOOOOOOOOOOOXXOOOOOOOOOOOOOOOOOOOOOOXXOOOOOOOOOOOOOOOOOO",
"XXOOOOOOOOOOOOOOOOOOXXOOOOOOOOOOOOOOOOOOOOOOXXOOOOOOOOOOOOOOOOOO",
"XXooooooooooooooooooXXooooooooooooooooooooooXXoooooooooooooooooo",
"XXooooooooooooooooooXXooooooooooooooooooooooXXoooooooooooooooooo",
"                                                                ",
"                                                                ",
"................................................................",
"................................................................"
};
