/* XPM */
static char *_58b8471abb849c9ca9c2f37eff1299dsm1NHo0vLekyLuft[] = {
/* columns rows colors chars-per-pixel */
"32 32 35 1 ",
"  c #43420A",
". c #457335",
"X c #676A32",
"o c #7F7C49",
"O c #7D8B46",
"+ c #7F8D48",
"@ c #60B243",
"# c #F8C637",
"$ c #818F4A",
"% c #82904B",
"& c #83914C",
"* c #85934E",
"= c #A4B951",
"- c #A7BC55",
"; c #A8BD56",
": c #ADC25B",
"> c #AEC35C",
", c #AFC45D",
"< c #B0C55E",
"1 c #B6CB64",
"2 c #B7CC66",
"3 c #B8CD67",
"4 c #B9CE68",
"5 c #BBD06A",
"6 c #BCD16B",
"7 c #BED36D",
"8 c #BFD46E",
"9 c #C0D56F",
"0 c #C2D771",
"q c #C3D872",
"w c #C4D973",
"e c #C6DB75",
"r c #C7DC76",
"t c #FBD76A",
"y c #FBE96A",
/* pixels */
"407w6780999999996<6w889960098907",
"q0500q0699999999w40w8878qq4006q8",
"9990q60099999999w800899078<606r0",
"0777w50999999999888780007w8qw75:",
"70e07<6q999999998098998800867qq0",
"w078qX86999999999q00099706q00060",
"707qXtX099999999808008q9q8998760",
"806qXtX799999999097086088w9900w8",
"5r90XyX999999999999999994e7e78q9",
"q479XyX099999999999XX999wq69q705",
"6e00XyX09999999999XyyX99Xoe96:7q",
"e05;XyX7999999999Xyt#tXXo#X7w7q7",
"970eXyX8999999999Xy###ooo#Xw700q",
"08w6Xt#X999999999yt#yyyy#oX05w75",
";988X##XXXXXXXXXXtyyyyyyy#X09098",
"q97q8X##ttyyyyyt#yyyyyyyyyo7059w",
"6w660X#tyyyyyyyyy#yyy..yyyto808:",
"e90e8X#yyyyyyyyyy#yyy@.yyyto7700",
"968088Xyyyyyyyyyy#yyyyyytXtX0e60",
"e8qq09 yyyyyyyyyy#tyyyyyytX6<407",
"6>5059 tyyyytyyyt#ootyytoX78q80e",
"e70w99 Xtyyt#ttttt#ooX  087w877;",
"7w7708+Xyttt  #tt### $995wq780w0",
"907087*Xy##o $ #t#X# $99e4798869",
"78907e$ ### %$& t#X# *608q698e77",
"007w05$ ##y $*+$ #X#o$0qq5089080",
"70006q% yyy $$$$ yy  &787e8q0;08",
"97=q07$+   $&7e$$  &Oq700997e770",
"qw08800$&$*&987&$$*%q00888609e97",
"88q8e-99887095907990709788qr2077",
"06w1q90608:6e8e30q46,99q0e20w8r8",
"707w607q809q959w79q080q7040:87-0"
};
