/* XPM */
static char *b99a968924b044378438b4fa514bcdd5ZdQJ3UgeYyEZ8Mo2[] = {
/* columns rows colors chars-per-pixel */
"32 32 10 1 ",
"  c None",
". c #454412",
"X c #477238",
"o c #676A35",
"O c #7E7B4A",
"+ c #60B045",
"@ c #D7A51B",
"# c #F8C53A",
"$ c #FBD66A",
"% c #FBE86A",
/* pixels */
"               oo               ",
"              o@@o              ",
"              o$@o              ",
"              o$@o              ",
"              o$@o              ",
"              o$@o              ",
"              o@@o              ",
"              o@@o              ",
"              o##oo             ",
"             o@@@@#o            ",
"            o#%%%%%#o           ",
"           o#%%%%%#$#o          ",
"           o$@@@@@@@#o          ",
"           o@#######@o          ",
"           o##%%%%###o          ",
"           o#%%%%%%%#o          ",
"           o%%%%%%%%%o          ",
"           o%XX%%%XX%o          ",
"          oo%+X%%%X+%oo         ",
"           O#$#oo#%%#O          ",
"          ooO#%%%%%#Ooo         ",
"           o##OOOO###o          ",
"           .@#%%%%%#@.          ",
"            .@oooo@@.           ",
"             o@oo@@o            ",
"             .$..$$.            ",
"             .$..$$.            ",
"              .  ..             ",
"                                ",
"                                ",
"                                ",
"                                "
};
