/* XPM */
static char *_b74ba7911984fe79beaed8695aff887nYDAj4nkfrMGVdjS[] = {
/* columns rows colors chars-per-pixel */
"32 32 36 1 ",
"  c #43420A",
". c #457335",
"X c #676A32",
"o c #7F7C49",
"O c #7C8A45",
"+ c #7E8C47",
"@ c #7F8D48",
"# c #60B243",
"$ c #F8C637",
"% c #808E49",
"& c #82904B",
"* c #83914C",
"= c #85934E",
"- c #A4B951",
"; c #A7BC55",
": c #A8BD56",
"> c #ADC25B",
", c #AEC35C",
"< c #AFC45D",
"1 c #B0C55E",
"2 c #B6CB64",
"3 c #B7CC66",
"4 c #B8CD67",
"5 c #B9CE68",
"6 c #BBD06A",
"7 c #BCD16B",
"8 c #BED36D",
"9 c #BFD46E",
"0 c #C0D56F",
"q c #C2D771",
"w c #C3D872",
"e c #C4D973",
"r c #C6DB75",
"t c #C7DC76",
"y c #FBD76A",
"u c #FBE96A",
/* pixels */
"5q8e789q00000000717e99007qq090q8",
"wq6qqwq700000000e5qe9989ww5qq7w9",
"000qw7qq00000000e9qq900q8917q7tq",
"q888e6q00000000099989qqq8e9we86>",
"8qrq817w000000009q090099qq978wwq",
"eq89w897000000000wqqq008qXwqqq7q",
"8q8w09qq000000009q9qq9w0XyX0987q",
"9q7w8q0800000000q08q97q9XyX0qqe9",
"6t0q8r700000000000000000XuXr89w0",
"w58008wq00XX000000000000XuX0w8q6",
"7rqq9oXq0XuuX00000000000XuX07>8w",
"rq6:X$oXXy$yuX0000000000XuX8e8w8",
"08qrX$ooo$$$uX0000000000XuXe8qqw",
"q9e7Xo$uuuu$yu000000000X$yXq6e86",
":099X$uuuuuuuyXXXXXXXXXX$$Xq0q09",
"w08wouuuuuuuuu$yuuuuuyy$$Xw8q60e",
"7e7oyuuu..uuu$uuuuuuuuuy$X989q9>",
"r0qoyuuu.#uuu$uuuuuuuuuu$Xwr88qq",
"079XyXyuuuuuu$uuuuuuuuuuX8q8qr7q",
"r9wwXyuuuuuuy$uuuuuuuuuu 7w715q8",
"7,6q6Xoyuuyoo$yuuuyuuuuy r89w9qr",
"r8qe00q  Xoo$yyyyy$yuuyX 98e988:",
"8e88q98q0% $$$yy$  yyyuX+ew89qeq",
"0q8q98r00% $X$y$ % o$$uX=5809970",
"890q8r908* $X$y %=% $$$ %w709r88",
"qq8eq699r%o$X$ %&&* u$$ *6q90q9q",
"8qqq7wqw8%  uu %@&% uuu @r9wq:q9",
"08-wq8089qO%  =%9e@*   *&008r88q",
"weq99qq9q0e*%%%*90e&*&*%997q0r08",
"99w9r;00998q060q800q8q0899wt3q88",
"q7e2w0q7q9>7r9r4qw57<00wqr3qe9t9",
"8q8e7q8w9q0w060e80wq9qw8q5q>98;q"
};
