/* XPM */
static char *_f988237dddd422a871131df6d164fd9OjNLmXpGiVsrXwGY[] = {
/* columns rows colors chars-per-pixel */
"32 32 42 1 ",
"  c #5F7B7A",
". c #91625D",
"X c #AC7A59",
"o c #8B4971",
"O c #A55B71",
"+ c #B16777",
"@ c #BE767F",
"# c #6E977D",
"$ c #A4B951",
"% c #A7BC55",
"& c #A8BD56",
"* c #B88A62",
"= c #A2B362",
"- c #A4B564",
"; c #ACBC6C",
": c #C59B6C",
"> c #ACC15A",
", c #AEC35C",
"< c #B0C55E",
"1 c #B6CB64",
"2 c #B7CC66",
"3 c #B9CE68",
"4 c #BBD06A",
"5 c #BCD16B",
"6 c #BED36D",
"7 c #BFD46E",
"8 c #AFC070",
"9 c #B2C373",
"0 c #B3C473",
"q c #B4C474",
"w c #B8C979",
"e c #C0D56F",
"r c #C2D771",
"t c #C3D872",
"y c #C4D973",
"u c #C6DB75",
"i c #C7DC76",
"p c #98BC8F",
"a c #DA9B9B",
"s c #E9B6AE",
"d c #B0D59A",
"f c #C3E19B",
/* pixels */
"3r6y567reeeeeeee5<5y77ee5rre7er6",
"tr4rrtr5eeee         767tt3rr5t7",
"eeert5rree  pddddddpp er67<5r5ir",
"r666y4re  pdddfffdffdp  6y7ty64>",
"6rur6<5 pdddddfffdffddpp r756ttr",
"yr67t6 pdfffdfffddddddddp trrr5r",
"6r6te ppdffffffdddfffdddpp e765r",
"7r5t6 dddddffdddddf++f+Opp erry7",
"4ier pdddddddddddd+sa+@@odp 67te",
"t36e pddddddddddddOa@@@@odp t6r4",
"5urr pp++d+OpddddddO@+@oppp 5>6t",
"ur4& p+sa+@@oddddddpooodpp 6y6t6",
"e6ru pOa@@@@opppddpdddpppp y6rrt",
"r7y5u pO@+@oppppppppppppppp 4y64",
"&e776 ppooopppppppppppppppp ere7",
"te6t #pppppppppppppppppppp# r4ey",
"5y55 ###p##pp###ppppp###### 7r7>",
"ueru ###p##pp###++p+O###### 66rr",
"e57r ########pp+sa+@@opp## 6ru5r",
"u7ttr ##ppp####Oa@@@@o#### 5<3r6",
"5,4r4 ##########O@+@o##### 7t7ru",
"u6ryee ##########ooo##### 6y766&",
"6y66r76  #############   yt67ryr",
"er6r76uee             eeu36e775e",
"67er6u7e6rer.XXXXXX.7y5r7t5e7u66",
"rr6yr477u6y7.*XXXX*.r6rtt4r7er7r",
"6rrr5trt6e70.******.9r676u7tr&r7",
"e6$tr6e67q;0.*:*:::.;q9rree6u66r",
"tyr77rr7q0q.::::::::.qq9775reue6",
"77t7u%ee999q::::::::9q0977ti2r66",
"r5y1ter5r9=8w9w::q;8-00tru2ry7i7",
"6r6y5r6t7req0;0q90qq9rt6r3r>76%r"
};
